<svg xmlns="http://www.w3.org/2000/svg" xmlns:xlink="http://www.w3.org/1999/xlink" viewBox="0 0 1662.001 718.465">
  <defs>
    <style>
      .cls-1 {
        fill: #fff;
      }

      .cls-2 {
        filter: url(#Union_8);
      }
    </style>
    <filter id="Union_8" x="0" y="0" width="1662.001" height="718.465" filterUnits="userSpaceOnUse">
      <feOffset dy="20" input="SourceAlpha"/>
      <feGaussianBlur stdDeviation="25" result="blur"/>
      <feFlood flood-opacity="0.102"/>
      <feComposite operator="in" in2="blur"/>
      <feComposite in="SourceGraphic"/>
    </filter>
  </defs>
  <g class="cls-2" transform="matrix(1, 0, 0, 1, 0, 0)">
    <path id="Union_8-2" data-name="Union 8" class="cls-1" d="M-5225.507,1328.465V1073.25h15.014v255.216Zm-960.816-7.513-79.352-79.354v-21.447l77.208,77.209v-34.315l-77.208-77.209V1164.39l77.208,77.209V1065.735h15.013v255.217Zm504-30.824V1176.46l-19.3-19.3-42.894,45.039v87.931h-15.012V1034.911h15.012l81.5,83.642-27.88,27.882,23.591,23.591v120.1Zm-62.2-109.378,34.315-34.315-34.315-34.315Zm0-92.222,45.039,47.183,17.157-17.157-62.2-62.2Zm598.366,143.427c0-6.433,4.29-10.724,10.723-10.724,4.291,0,10.724,4.29,10.724,10.724s-4.289,10.724-10.724,10.724S-5146.153,1238.39-5146.153,1231.955Zm-712.034-79.087c0-6.433,4.29-10.722,10.723-10.722s10.724,4.289,10.724,10.722-4.289,10.724-10.724,10.724S-5858.187,1159.3-5858.187,1152.868Zm536.17-4.555c0-6.435,4.29-10.724,10.723-10.724,4.291,0,10.724,4.289,10.724,10.724s-4.289,10.724-10.724,10.724S-5322.017,1154.747-5322.017,1148.313Zm341.005-29.29V945.305l-64.341,64.34v109.378h-17.157V947.45l83.641-83.642H-4966v255.216Zm-66.486-165.14V988.2l64.34-64.34V889.543Zm-401.588,102.836V870.132l-45.039-45.037v231.624h-15.012V799.357h12.868l55.762,55.762,53.616-55.762h12.868v255.217h-15.012V880.855l-45.039,45.039v130.825Zm12.868-186.587v34.315l45.039-45.039V825.095Zm-505.613,150.833V847.247l-64.339,64.34v109.378h-15.012V849.392l81.5-83.644h12.87v255.217Zm-64.339-165.14V890.14l64.339-64.34V791.485ZM-6478,1015.216V760h12.868l85.788,83.642-45.039,42.893,45.039,45.039-83.644,83.642Zm15.012-87.931v66.486l62.2-62.2-34.315-32.171Zm0-21.447,17.159-17.157-17.159-17.158Zm0-57.906,27.882,30.026,34.315-34.315-62.2-62.2Zm868.064,105.844c0-6.435,4.29-10.724,10.723-10.724,4.291,0,8.58,4.289,10.724,10.724,0,6.433-4.289,10.722-10.724,10.722S-5594.924,960.209-5594.924,953.775Zm-509.9-14.308c0-6.433,4.29-10.724,10.724-10.724s10.723,4.29,10.723,10.724-4.289,10.724-10.723,10.724S-6104.826,945.9-6104.826,939.467Zm-218.758-108.692c0-6.435,4.29-10.724,10.723-10.724,6.435,2.144,10.724,6.433,10.724,10.724,0,6.433-4.289,10.724-10.724,10.724S-6323.583,837.208-6323.583,830.775Z" transform="translate(6553 -705)"/>
  </g>
</svg>
