<svg xmlns="http://www.w3.org/2000/svg" viewBox="0 0 521.34 110.91"><defs><style>.cls-1{fill:#c00;}.cls-2{fill:#222;}</style></defs><title>logo-big</title><g id="Layer_2" data-name="Layer 2"><g id="_1" data-name="1"><path class="cls-1" d="M59.27,60.58l21.15-34.3a3.74,3.74,0,1,1,6.37,3.93l-21,34.11,22.18-11.4a3.74,3.74,0,0,1,3.42,6.66L71,70h38.09A55.51,55.51,0,0,0,59.27,0Z"/><path class="cls-1" d="M47,70,21.73,42.64a3.74,3.74,0,1,1,5.51-5.07L51.78,64.2V0A55.51,55.51,0,0,0,2,70Z"/><path class="cls-1" d="M55.53,77.53H4.6a55.53,55.53,0,0,0,101.84,0Z"/><path class="cls-2" d="M203.16,84.34H190.32V49.78q0-5.6.48-12.36h-.32a61.14,61.14,0,0,1-1.81,7.65L175.13,84.34H164.5L150.73,45.47a75,75,0,0,1-1.81-8.05h-.36q.52,8.54.52,15V84.34H137.36V26.59h19l11.8,34.23a48.47,48.47,0,0,1,2.06,8.26h.24a83.14,83.14,0,0,1,2.29-8.34l11.8-34.15h18.57Z"/><path class="cls-2" d="M250.64,67.34h-26.9q.64,9,11.32,9a22.09,22.09,0,0,0,12-3.22v9.18q-5.72,3.06-14.86,3.06-10,0-15.5-5.54t-5.52-15.44q0-10.27,6-16.27a19.86,19.86,0,0,1,14.66-6q9,0,14,5.35T250.64,62Zm-11.8-7.81q0-8.86-7.17-8.86a6.85,6.85,0,0,0-5.3,2.54,11.52,11.52,0,0,0-2.72,6.32Z"/><rect class="cls-2" x="258.22" y="23.28" width="12.73" height="61.05"/><path class="cls-2" d="M279,83.25V72.94a27.1,27.1,0,0,0,6.26,2.82,20.77,20.77,0,0,0,5.9.93,12.66,12.66,0,0,0,5.34-.93,3,3,0,0,0,2-2.82,2.6,2.6,0,0,0-.89-2,8.27,8.27,0,0,0-2.28-1.41,25.47,25.47,0,0,0-3-1.09q-1.65-.48-3.19-1.09a30.69,30.69,0,0,1-4.33-2,12.4,12.4,0,0,1-3.14-2.48,9.69,9.69,0,0,1-1.94-3.26,13.09,13.09,0,0,1-.66-4.39,11.27,11.27,0,0,1,1.51-6,12.34,12.34,0,0,1,4-4.09,18.45,18.45,0,0,1,5.76-2.34,30.08,30.08,0,0,1,6.74-.74,37.52,37.52,0,0,1,5.56.42,41.67,41.67,0,0,1,5.56,1.23v9.82a20.12,20.12,0,0,0-5.18-2.11,21.87,21.87,0,0,0-5.42-.7,11.88,11.88,0,0,0-2.36.22,7.87,7.87,0,0,0-2,.64,3.62,3.62,0,0,0-1.32,1.09,2.49,2.49,0,0,0-.49,1.51,2.78,2.78,0,0,0,.73,1.93A6.22,6.22,0,0,0,294,57.54a18.54,18.54,0,0,0,2.6,1l2.84.95A36.59,36.59,0,0,1,304,61.46a14.64,14.64,0,0,1,3.52,2.46,9.57,9.57,0,0,1,2.25,3.3A13.18,13.18,0,0,1,309,78a12.74,12.74,0,0,1-4.23,4.23,19.11,19.11,0,0,1-6.08,2.38,33.78,33.78,0,0,1-7.15.74A36.83,36.83,0,0,1,279,83.25"/><path class="cls-2" d="M358.17,43.1,341.42,87.64q-6,16.07-18.21,16.07a23.33,23.33,0,0,1-7.61-1V92.51A10.69,10.69,0,0,0,321.12,94,6.89,6.89,0,0,0,328,89.37l2.17-5.11L313.39,43.1h14.1l7.69,25.09a32.53,32.53,0,0,1,1.13,5.52h.16a38.19,38.19,0,0,1,1.33-5.44l7.77-25.17Z"/><path class="cls-2" d="M390.6,83.85q-2.82,1.49-8.5,1.49-13.45,0-13.45-14V52.48H362V43.1h6.68V34.2l12.68-3.62V43.1h9.26v9.38h-9.26V69.15q0,6.45,5.11,6.44a8.63,8.63,0,0,0,4.15-1.17Z"/><path class="cls-2" d="M435.08,67.34h-26.9q.65,9,11.32,9a22.1,22.1,0,0,0,12-3.22v9.18q-5.72,3.06-14.86,3.06-10,0-15.51-5.54t-5.52-15.44q0-10.27,6-16.27a19.85,19.85,0,0,1,14.66-6q9,0,14,5.35T435.08,62Zm-11.8-7.81q0-8.86-7.17-8.86a6.83,6.83,0,0,0-5.29,2.54,11.52,11.52,0,0,0-2.72,6.32Z"/><path class="cls-2" d="M473.9,82.85q-4.31,2.5-12.44,2.5-9.5,0-15.39-5.76t-5.88-14.86q0-10.51,6.31-16.57t16.85-6.06q7.29,0,10.55,1.93v10.8a14.51,14.51,0,0,0-8.9-3,11.72,11.72,0,0,0-8.68,3.2q-3.2,3.2-3.2,8.84,0,5.48,3.06,8.6t8.42,3.12a16.81,16.81,0,0,0,9.3-3Z"/><path class="cls-2" d="M521.34,84.34H508.66V60.9q0-9.06-6.6-9.06a6.77,6.77,0,0,0-5.48,2.54,9.79,9.79,0,0,0-2.09,6.44V84.34H481.75V23.28h12.73V49.22h.16q4.67-7.13,12.69-7.13,14,0,14,16.91Z"/></g></g></svg>