<svg xmlns="http://www.w3.org/2000/svg" viewBox="0 0 217.18 46.2"><defs><style>.cls-1{fill:#c00;}.cls-2{fill:#222;}</style></defs><title>logo</title><g id="Layer_2" data-name="Layer 2"><g id="Мед_карточка_товара"><path class="cls-1" d="M24.69,25.24,33.5,10.95a1.56,1.56,0,1,1,2.65,1.64L27.39,26.79,36.63,22a1.56,1.56,0,0,1,1.43,2.77l-8.48,4.36H45.44A23.13,23.13,0,0,0,24.69,0Z"/><path class="cls-1" d="M19.57,29.18,9.05,17.76a1.56,1.56,0,1,1,2.29-2.11l10.22,11.1V0A23.12,23.12,0,0,0,.82,29.18Z"/><path class="cls-1" d="M23.13,32.3H1.92a23.13,23.13,0,0,0,42.42,0Z"/><path class="cls-2" d="M84.63,35.13H79.28V20.74q0-2.33.2-5.15h-.13a25.47,25.47,0,0,1-.75,3.19L73,35.13H68.53L62.79,18.94A31.24,31.24,0,0,1,62,15.59h-.15q.22,3.56.22,6.24v13.3H57.22V11.07h7.94l4.92,14.26a20.19,20.19,0,0,1,.86,3.44H71a34.64,34.64,0,0,1,1-3.47L76.9,11.08h7.73Z"/><path class="cls-2" d="M104.41,28.05H93.21q.27,3.74,4.71,3.74a9.2,9.2,0,0,0,5-1.34v3.83a13.09,13.09,0,0,1-6.19,1.28,8.71,8.71,0,0,1-6.46-2.31A8.71,8.71,0,0,1,88,26.81,9.2,9.2,0,0,1,90.44,20a8.27,8.27,0,0,1,6.11-2.5,7.51,7.51,0,0,1,5.81,2.23,8.59,8.59,0,0,1,2.05,6.06ZM99.5,24.8q0-3.69-3-3.69a2.85,2.85,0,0,0-2.21,1.06,4.8,4.8,0,0,0-1.13,2.63Z"/><rect class="cls-2" x="107.57" y="9.7" width="5.3" height="25.43"/><path class="cls-2" d="M116.21,34.68V30.39a11.29,11.29,0,0,0,2.61,1.17,8.65,8.65,0,0,0,2.46.39,5.28,5.28,0,0,0,2.22-.39,1.25,1.25,0,0,0,.81-1.17,1.08,1.08,0,0,0-.37-.84A3.45,3.45,0,0,0,123,29a10.61,10.61,0,0,0-1.27-.45q-.69-.2-1.33-.45a12.78,12.78,0,0,1-1.8-.83,5.17,5.17,0,0,1-1.31-1,4,4,0,0,1-.81-1.36,5.45,5.45,0,0,1-.28-1.83,4.69,4.69,0,0,1,.63-2.48,5.14,5.14,0,0,1,1.68-1.7,7.68,7.68,0,0,1,2.4-1,12.53,12.53,0,0,1,2.81-.31,15.63,15.63,0,0,1,2.32.18,17.36,17.36,0,0,1,2.31.51v4.09a8.38,8.38,0,0,0-2.16-.88,9.11,9.11,0,0,0-2.26-.29,5,5,0,0,0-1,.09,3.28,3.28,0,0,0-.82.27,1.51,1.51,0,0,0-.55.45,1,1,0,0,0-.2.63,1.16,1.16,0,0,0,.3.81,2.59,2.59,0,0,0,.79.58,7.72,7.72,0,0,0,1.08.44l1.18.4a15.24,15.24,0,0,1,1.91.8,6.1,6.1,0,0,1,1.47,1,4,4,0,0,1,.94,1.38,5.49,5.49,0,0,1-.33,4.49A5.31,5.31,0,0,1,127,34.25a8,8,0,0,1-2.53,1,14.07,14.07,0,0,1-3,.31,15.34,15.34,0,0,1-5.25-.87"/><path class="cls-2" d="M149.21,18l-7,18.55q-2.52,6.7-7.59,6.69a9.72,9.72,0,0,1-3.17-.44V38.54a4.45,4.45,0,0,0,2.3.62,2.87,2.87,0,0,0,2.85-1.93l.91-2.13-7-17.15h5.87l3.2,10.45a13.55,13.55,0,0,1,.47,2.3h.07a15.91,15.91,0,0,1,.55-2.27L144,18Z"/><path class="cls-2" d="M162.71,34.93a7.84,7.84,0,0,1-3.54.62q-5.6,0-5.6-5.82V21.86h-2.78V18h2.78V14.25l5.28-1.51V18h3.86v3.91h-3.86v6.95q0,2.68,2.13,2.68a3.59,3.59,0,0,0,1.73-.49Z"/><path class="cls-2" d="M181.24,28.05H170q.27,3.74,4.71,3.74a9.21,9.21,0,0,0,5-1.34v3.83a13.09,13.09,0,0,1-6.19,1.28,8.71,8.71,0,0,1-6.46-2.31,8.72,8.72,0,0,1-2.3-6.43A9.19,9.19,0,0,1,167.27,20a8.27,8.27,0,0,1,6.11-2.5,7.51,7.51,0,0,1,5.81,2.23,8.6,8.6,0,0,1,2.06,6.06Zm-4.92-3.25q0-3.69-3-3.69a2.85,2.85,0,0,0-2.21,1.06A4.8,4.8,0,0,0,170,24.8Z"/><path class="cls-2" d="M197.42,34.51a10.48,10.48,0,0,1-5.18,1,8.77,8.77,0,0,1-6.41-2.4A8.29,8.29,0,0,1,183.37,27a9.12,9.12,0,0,1,2.63-6.9,9.7,9.7,0,0,1,7-2.52,9,9,0,0,1,4.4.8v4.5a6,6,0,0,0-3.71-1.24,4.88,4.88,0,0,0-3.62,1.33,5,5,0,0,0-1.33,3.68A4.9,4.9,0,0,0,190,30.19a4.69,4.69,0,0,0,3.51,1.3,7,7,0,0,0,3.88-1.24Z"/><path class="cls-2" d="M217.18,35.13h-5.28V25.37q0-3.78-2.75-3.77a2.82,2.82,0,0,0-2.28,1.06,4.08,4.08,0,0,0-.87,2.68v9.8h-5.3V9.7H206V20.5h.07a6,6,0,0,1,5.28-3q5.84,0,5.84,7Z"/></g></g></svg>