<svg xmlns="http://www.w3.org/2000/svg" viewBox="2413.242 3150 144.056 121.697">
  <defs>
    <style>
      .cls-1, .cls-2 {
        fill: #242e2d;
      }

      .cls-2 {
        fill-rule: evenodd;
      }

      .cls-3 {
        fill: #fff;
      }
    </style>
  </defs>
  <g id="logo_01" transform="translate(1481.242 2519)">
    <path id="Path_4" data-name="Path 4" class="cls-1" d="M16.755,44.943a1.022,1.022,0,1,1-1.022-1.022C16.347,44.126,16.755,44.534,16.755,44.943Zm19.82,8.786A1.022,1.022,0,1,0,37.6,54.751.965.965,0,0,0,36.576,53.729Zm23.5-5.313A1.022,1.022,0,1,0,61.1,49.438.965.965,0,0,0,60.074,48.417ZM84.8,51.89a1.022,1.022,0,1,0,1.022,1.022C85.616,52.3,85.207,51.89,84.8,51.89Zm26.359-7.56a1.022,1.022,0,1,0,1.022,1.022A1.1,1.1,0,0,0,111.158,44.33ZM127.913,52.3a1.022,1.022,0,1,0,1.022,1.022A1.1,1.1,0,0,0,127.913,52.3ZM9.4,46.169,5.108,50.256,9.4,54.547,1.43,62.516H0V38.2H1.226ZM1.43,52.095,3.065,50.46,1.43,48.825Zm2.656-.613L1.43,54.138v6.334l5.926-5.926Zm0-2.043,3.269-3.269L1.43,40.243v6.334Zm73.56-3.269-2.656,2.656,2.248,2.248V62.516h-1.43V51.686l-1.839-1.839-4.087,4.291v8.378h-1.43V38.2h1.43Zm-4.5,2.656-3.269-3.269v6.539ZM74.173,47.8l1.635-1.635-5.926-5.926v3.065ZM27.585,38.2V54.955L20.229,47.6v2.043L27.585,57v3.269l-7.356-7.356v2.043l7.56,7.56h1.226V38.2Zm23.7,0h1.226V62.516h-1.43V45.965l-6.13,6.13V62.516h-1.43V46.169Zm-.2,2.452-6.13,6.13v3.269l6.13-6.13ZM103.6,38.2h1.226V62.516h-1.43V45.965L99.1,50.256V62.72h-1.43V44.943l-4.291-4.291V62.72H91.95V38.2h1.226l5.313,5.313Zm-.409,2.452L98.9,44.943v3.269l4.291-4.291Zm16.142,21.864h1.43V38.2h-1.43ZM142.83,38.2h1.226V62.516h-1.43V45.965l-6.13,6.13V62.516h-1.635V46.169Zm-.409,2.452-6.13,6.13v3.269l6.13-6.13Z" transform="translate(932 670.974)"/>
    <path id="Path_5" data-name="Path 5" class="cls-2" d="M17.248,35a31.069,31.069,0,0,1,5.926-12.464A55.358,55.358,0,0,1,37.681,9.051C44.833,4.556,52.8.878,59.136.06S71.6,2.717,75.483,8.847,80.8,22.741,82.839,32.754c1.839,10.012,4.7,19.412,3.882,24.316-.817,4.7-6.13,9.6-13.486,7.969-3.269-.817-8.378-2.248-14.508-3.882-7.356-2.248-16.142-5.108-21.455-6.947-9.6-3.269-14.3-5.517-16.142-7.152a14.037,14.037,0,0,1-4.087-7.152A18.893,18.893,0,0,1,17.248,35Z" transform="translate(949.694 631.058)"/>
    <path id="Path_6" data-name="Path 6" class="cls-3" d="M32.9,5.1,47.2,19.4l-6.947,6.947L47.2,33.3,32.9,47.6Zm1.43,26.972V43.719L44.956,33.094l-5.721-5.926Zm0-2.043,3.882-3.882L34.33,22.264Zm0-9.808,4.9,4.9L44.956,19.4,34.33,8.778Z" transform="translate(966.326 636.439)"/>
    <path id="Path_7" data-name="Path 7" d="M15.082,61.721a4.467,4.467,0,0,1-.613,1.022,2.9,2.9,0,0,1-1.226.409c-.409,0-.613,0-.817-.2s-.409-.2-.613-.409-.409-.409-.409-.613-.2-.613-.2-.817V58.043a1.229,1.229,0,0,1,.2-.817c0-.2.2-.409.409-.613s.409-.409.613-.409a1.229,1.229,0,0,1,.817-.2,2.9,2.9,0,0,1,1.226.409,2.04,2.04,0,0,1,.817,1.022l-.817.409c0-.2-.2-.409-.409-.613s-.409-.2-.817-.2a.751.751,0,0,0-.613.2c-.2,0-.2.2-.409.2-.2.2-.2.2-.2.409v3.882c0,.2.2.2.2.409s.2.2.409.2.409.2.613.2c.409,0,.613,0,.817-.2s.409-.409.409-.613Z" transform="translate(943.685 689.545)"/>
    <path id="Path_8" data-name="Path 8" d="M21.091,60.9c0,.409,0,.613-.2.817,0,.2-.2.409-.409.613s-.409.409-.613.409-.613.2-.817.2a1.842,1.842,0,0,1-1.022-.2c-.2-.2-.409-.2-.613-.409s-.2-.409-.409-.817c0-.2-.2-.613-.2-.817V58.043a1.545,1.545,0,0,1,.2-.817c0-.2.2-.409.409-.613s.409-.409.613-.409a1.531,1.531,0,0,1,1.022-.2,1.842,1.842,0,0,1,1.022.2c.2.2.409.2.613.409s.2.409.409.613c0,.2.2.409.2.817V60.9Zm-1.022-2.861v-.409c0-.2-.2-.2-.2-.409s-.2-.2-.409-.409c-.2,0-.409-.2-.613-.2a.751.751,0,0,0-.613.2c-.2,0-.2.2-.409.409,0,.2-.2.2-.2.409v3.882a.713.713,0,0,0,.2.409c0,.2.2.2.409.409.2,0,.409.2.613.2h.409c.2,0,.2-.2.409-.2.2-.2.2-.2.2-.409V58.043Z" transform="translate(949.528 689.545)"/>
    <path id="Path_9" data-name="Path 9" d="M27,61.213a1.855,1.855,0,0,1-.613,1.43,2.011,2.011,0,0,1-1.635.613,2.953,2.953,0,0,1-1.43-.409,2.04,2.04,0,0,1-.817-1.022l.817-.409.613.613a1.229,1.229,0,0,0,.817.2,1.561,1.561,0,0,0,1.022-.409c.2-.2.2-.409.2-.817V60.6c0-.2-.2-.2-.2-.409h-.409c-.2,0-.409-.2-.613-.2-.409-.2-.613-.2-.817-.409s-.409-.2-.613-.409-.2-.409-.409-.613c0-.2-.2-.409-.2-.613a1.229,1.229,0,0,1,.2-.817c0-.2.2-.409.409-.613s.409-.409.613-.409.613-.2.817-.2c.613,0,1.022,0,1.226.2a2.821,2.821,0,0,1,.817.613l-.817.409c-.2-.2-.409-.409-.409-.613-.2-.2-.409-.2-.817-.2a1.062,1.062,0,0,0-.817.409c-.2.2-.2.409-.2.817,0,.2,0,.409.2.409,0,.2.2.2.409.409a.713.713,0,0,1,.409.2c.2,0,.409.2.613.2a1.062,1.062,0,0,1,.817.409c.2.2.409.2.409.409a.751.751,0,0,1,.2.613A2.222,2.222,0,0,1,27,61.213Z" transform="translate(955.475 689.441)"/>
    <path id="Path_10" data-name="Path 10" d="M33,62.947v-4.9h0l-.613,1.43-.817,2.248h-.613L29.93,59.474l-.613-1.43h0v4.9H28.5V56h.817l1.226,2.656.613,1.635h0l.613-1.635L33,56h.817v7.152H33Z" transform="translate(961.735 689.545)"/>
    <path id="Path_11" data-name="Path 11" d="M35,62.947V56h3.678v.817H35.817v2.248h2.452v.817H35.817V62.13h2.861v.817Z" transform="translate(968.517 689.545)"/>
    <path id="Path_12" data-name="Path 12" d="M42.952,56.613v6.334h-.817V56.613H40.5V56h4.087v.817H42.952Z" transform="translate(974.255 689.545)"/>
    <path id="Path_13" data-name="Path 13" d="M46.2,62.947V56h.817v7.152H46.2Z" transform="translate(980.202 689.545)"/>
    <path id="Path_14" data-name="Path 14" d="M54.482,61.721a4.466,4.466,0,0,1-.613,1.022,2.9,2.9,0,0,1-1.226.409c-.409,0-.613,0-.817-.2s-.409-.2-.613-.409-.409-.409-.409-.613-.2-.613-.2-.817V58.043a1.229,1.229,0,0,1,.2-.817c0-.2.2-.409.409-.613s.409-.409.613-.409a1.229,1.229,0,0,1,.817-.2,2.9,2.9,0,0,1,1.226.409,2.04,2.04,0,0,1,.817,1.022l-.817.409c0-.2-.2-.409-.409-.613s-.409-.2-.817-.2a.751.751,0,0,0-.613.2c-.2,0-.2.2-.409.2-.2-.2-.2-.2-.2,0v3.882c0,.2.2.2.2.409s.2.2.409.2.409.2.613.2c.409,0,.613,0,.817-.2s.409-.409.409-.613Z" transform="translate(984.793 689.545)"/>
    <path id="Path_15" data-name="Path 15" d="M60.5,61.317a1.855,1.855,0,0,1-.613,1.43,2.011,2.011,0,0,1-1.635.613,2.953,2.953,0,0,1-1.43-.409A2.04,2.04,0,0,1,56,61.93l.817-.409.613.613a1.228,1.228,0,0,0,.817.2,1.561,1.561,0,0,0,1.022-.409c.2-.2.2-.409.2-.817V60.7c0-.2-.2-.2-.2-.409-.2,0-.2-.2-.409-.2s-.409-.2-.613-.2c-.409-.2-.613-.2-.817-.409s-.409-.2-.613-.409-.2-.409-.409-.613c0-.2-.2-.409-.2-.613a1.229,1.229,0,0,1,.2-.817c0-.2.2-.409.409-.613S57.226,56,57.43,56s.613-.2.817-.2c.613,0,1.022,0,1.226.2a2.821,2.821,0,0,1,.817.613l-.817.409c-.2-.2-.409-.409-.409-.613-.2-.2-.409-.2-.817-.2a1.062,1.062,0,0,0-.817.409c-.2.2-.2.409-.2.817,0,.2,0,.409.2.409,0,.2.2.2.409.409a.713.713,0,0,1,.409.2c.2,0,.409.2.613.2a1.062,1.062,0,0,1,.817.409c.2.2.409.2.409.409a.751.751,0,0,1,.2.613A3.6,3.6,0,0,1,60.5,61.317Z" transform="translate(990.427 689.337)"/>
  </g>
</svg>
