<svg xmlns="http://www.w3.org/2000/svg" viewBox="1211.5 3127.234 1095 186.383">
  <defs>
    <style>
      .cls-1 {
        fill: #ac9148;
        opacity: 0.4;
      }
    </style>
  </defs>
  <path id="logo_big" class="cls-1" d="M127.362,89.455a7.766,7.766,0,1,1-7.766-7.766C124.255,83.243,127.362,86.349,127.362,89.455Zm150.66,66.787a7.766,7.766,0,1,0,7.766,7.766A7.337,7.337,0,0,0,278.021,156.243ZM456.638,115.86a7.766,7.766,0,1,0,7.766,7.766A7.337,7.337,0,0,0,456.638,115.86Zm187.936,26.4a7.766,7.766,0,1,0,7.766,7.766C650.787,145.37,647.681,142.264,644.574,142.264ZM844.936,84.8a7.766,7.766,0,1,0,7.766,7.766C852.7,87.9,848.043,84.8,844.936,84.8ZM972.3,145.37a7.766,7.766,0,1,0,7.766,7.766C980.064,148.477,975.4,145.37,972.3,145.37ZM71.447,98.774,38.83,129.838l32.617,32.617L10.872,223.03H0V38.2H9.319ZM10.872,143.817,23.3,131.391,10.872,118.966Zm20.191-4.66L10.872,159.349V207.5l45.043-45.043Zm0-15.532L55.915,98.774,10.872,53.732v48.149ZM590.213,98.774l-20.191,20.191,17.085,17.085V223.03H576.234V140.711l-13.979-13.979-31.064,32.617V223.03H520.319V38.2h10.872Zm-34.17,20.191L531.191,94.115v49.7Zm7.766-7.766,12.426-12.426L531.191,53.732v23.3Zm-354.128-73V165.562l-55.915-55.915v15.532l55.915,55.915v24.851L153.766,150.03v15.532l57.468,57.468h9.319V38.2Zm180.17,0h9.319V223.03H388.3V97.221l-46.6,46.6V223.03H330.83V98.774ZM388.3,56.838l-46.6,46.6v24.851l46.6-46.6ZM787.468,38.2h9.319V223.03H785.915V97.221L753.3,129.838v94.745H742.425V89.455L709.809,56.838V224.583H698.936V38.2h9.319l40.383,40.383Zm-3.106,18.638L751.745,89.455v24.851l32.617-32.617Zm122.7,166.191h10.872V38.2H907.064ZM1085.681,38.2H1095V223.03h-10.872V97.221l-46.6,46.6V223.03h-12.426V98.774Zm-3.106,18.638-46.6,46.6v24.851l46.6-46.6Z" transform="translate(1211.5 3089.034)"/>
</svg>
