<svg xmlns="http://www.w3.org/2000/svg" viewBox="0 0 85.466 80.001">
  <defs>
    <style>
      .cls-1 {
        fill-rule: evenodd;
      }

      .cls-2 {
        fill: #fff;
      }
    </style>
  </defs>
  <g id="logo_02" transform="translate(-272 -3332)">
    <path id="Path_136" data-name="Path 136" class="cls-1" d="M.249,42.644A34.942,34.942,0,0,1,7.542,27.565,65.539,65.539,0,0,1,25.463,11.127c8.9-5.562,18.54-10.011,26.2-11C59.205-.862,66.744,3.464,71.565,11s6.551,16.933,8.9,29.169,5.809,23.854,4.82,29.663S77.868,81.577,68.846,79.6c-4.079-.989-10.259-2.6-17.674-4.82-9.023-2.719-19.652-6.3-26.2-8.4-11.742-3.955-17.427-6.8-19.776-8.9A17.189,17.189,0,0,1,.126,48.824,25.1,25.1,0,0,1,.249,42.644Z" transform="translate(272.009 3332.013)"/>
    <path id="Path_137" data-name="Path 137" class="cls-2" d="M32.2,10.3,49.627,27.727l-8.4,8.4,8.4,8.4L32.2,61.84Zm1.73,33V57.514l13.1-12.978-7.045-7.045Zm0-2.6,4.7-4.573-4.7-4.573Zm0-11.865,5.933,5.933,7.045-7.045L33.93,14.749Z" transform="translate(279.609 3334.447)"/>
  </g>
</svg>
