<svg xmlns="http://www.w3.org/2000/svg" viewBox="0 0 164.5 28">
  <path id="logo_01" d="M19.133,45.9a1.167,1.167,0,1,1-1.167-1.167C18.667,44.967,19.133,45.433,19.133,45.9ZM41.767,55.933A1.167,1.167,0,1,0,42.933,57.1,1.1,1.1,0,0,0,41.767,55.933ZM68.6,49.867a1.167,1.167,0,1,0,1.167,1.167A1.1,1.1,0,0,0,68.6,49.867Zm28.233,3.967A1.167,1.167,0,1,0,98,55C97.767,54.3,97.3,53.833,96.833,53.833Zm30.1-8.633a1.167,1.167,0,1,0,1.167,1.167A1.25,1.25,0,0,0,126.933,45.2Zm19.133,9.1a1.167,1.167,0,1,0,1.167,1.167A1.25,1.25,0,0,0,146.067,54.3Zm-135.333-7-4.9,4.667,4.9,4.9-9.1,9.1H0V38.2H1.4Zm-9.1,6.767L3.5,52.2,1.633,50.333Zm3.033-.7L1.633,56.4v7.233L8.4,56.867Zm0-2.333L8.4,47.3,1.633,40.533v7.233Zm84-3.733-3.033,3.033L88.2,52.9V65.967H86.567V53.6l-2.1-2.1L79.8,56.4v9.567H78.167V38.2H79.8Zm-5.133,3.033L79.8,46.6v7.467ZM84.7,49.167,86.567,47.3,79.8,40.533v3.5ZM31.5,38.2V57.333l-8.4-8.4v2.333l8.4,8.4V63.4L23.1,55v2.333l8.633,8.633h1.4V38.2Zm27.067,0h1.4V65.967H58.333v-18.9l-7,7v11.9H49.7V47.3ZM58.333,41l-7,7v3.733l7-7ZM118.3,38.2h1.4V65.967h-1.633v-18.9l-4.9,4.9V66.2h-1.633V45.9l-4.9-4.9V66.2H105v-28h1.4l6.067,6.067Zm-.467,2.8-4.9,4.9v3.733l4.9-4.9Zm18.433,24.967H137.9V38.2h-1.633ZM163.1,38.2h1.4V65.967h-1.633v-18.9l-7,7v11.9H154V47.3Zm-.467,2.8-7,7v3.733l7-7Z" transform="translate(0 -38.2)"/>
</svg>
