<?xml version="1.0" encoding="utf-8"?>
<!-- Generator: Adobe Illustrator 21.1.0, SVG Export Plug-In . SVG Version: 6.00 Build 0)  -->
<svg version="1.1" id="Layer_1" xmlns="http://www.w3.org/2000/svg" xmlns:xlink="http://www.w3.org/1999/xlink" x="0px" y="0px"
	 viewBox="0 0 188.7 29.7" style="enable-background:new 0 0 188.7 29.7;" xml:space="preserve">
<style type="text/css">
	.st0{enable-background:new    ;}
	.st1{fill:#242E2D;}
	.st2{fill:#2E323F;}
</style>
<g class="st0">
	<path class="st1" d="M70.8,7.2c3.7,0,6.6,2.6,6.6,6.5c0,3.8-2.8,6.5-6.6,6.5s-6.6-2.6-6.6-6.5C64.2,10,66.9,7.2,70.8,7.2z
		 M70.8,18.1c2.6,0,4.2-1.9,4.2-4.4c0-2.6-1.9-4.4-4.2-4.4c-2.4,0-4.2,1.8-4.2,4.4C66.5,16.2,68.4,18.1,70.8,18.1z"/>
	<path class="st1" d="M83,20.2h-0.1c-2.8,0-4.4-1.8-4.4-4.2c0-2.2,1.5-4.3,4.4-4.3H83V7.4h2.1v4.3h0.1c2.8,0,4.4,1.9,4.4,4.3
		c0,2.4-1.4,4.2-4.4,4.2h-0.1v3.4H83V20.2z M83,18.3L83,18.3l0.1-4.6h-0.1c-1.5,0-2.1,1.1-2.1,2.3C80.7,17.3,81.5,18.3,83,18.3z
		 M85.1,13.6v4.6h0.1c1.5,0,2.2-1,2.2-2.3c0-1.2-0.7-2.3-2.1-2.3H85.1z"/>
	<path class="st1" d="M96.5,14h-2.1l-0.1,0.9c-0.4,4.4-1.5,5.3-3.7,5.3l-0.2-2c0.7,0.1,1.7-0.6,1.8-3.7l0.1-2.5h6.1V20h-2.1V14z"/>
	<path class="st1" d="M100.9,12.5c0.7-0.4,1.8-0.8,2.9-0.8c2.4,0,3.2,1.2,3.2,3.4V20h-1.8v-0.9c-0.4,0.6-1.3,1-2.4,1
		c-1.5,0-2.5-0.9-2.5-2.5c0-1.8,1.3-2.6,3-2.6c0.7,0,1.4,0.2,1.8,0.5c0.1-1.4-0.3-2.1-1.5-2.1c-0.9,0-1.5,0.3-2.1,0.6L100.9,12.5z
		 M105.1,17.6v-0.8c-0.4-0.3-0.8-0.4-1.4-0.4c-0.7,0-1.3,0.3-1.3,1c0,0.6,0.5,1,1.2,1C104.4,18.4,104.8,18,105.1,17.6z"/>
	<path class="st1" d="M109.2,20v-8.1h2.1V17l3.8-5.1h2.1V20H115v-5.1l-3.8,5.1H109.2z M112.3,7.8c0,0.7,0.3,1.3,0.9,1.3
		c0.6,0,0.9-0.6,0.9-1.3h1.9c0,1.5-0.9,2.8-2.8,2.8c-2,0-2.8-1.2-2.8-2.8H112.3z"/>
	<path class="st1" d="M125,16.9h-3.5V20h-2.1v-8.1h2.1V15h3.5v-3.1h2.1V20H125V16.9z"/>
	<path class="st1" d="M129.3,14.1h4.5V16h-4.5V14.1z"/>
	<path class="st1" d="M140.4,11.7c2.7,0,4.4,1.8,4.4,4.3c0,2.4-1.7,4.2-4.4,4.2s-4.4-1.8-4.4-4.2C136,13.5,137.7,11.7,140.4,11.7z
		 M140.4,18.3c1.3,0,2.2-0.9,2.2-2.3c0-1.4-1-2.3-2.2-2.3c-1.2,0-2.2,0.9-2.2,2.3C138.2,17.3,139.1,18.3,140.4,18.3z"/>
	<path class="st1" d="M152.1,13.8h-3.5V20h-2.1v-8.1h7.6V20h-2.1V13.8z"/>
	<path class="st1" d="M161.8,14h-2.1l-0.1,0.9c-0.4,4.4-1.5,5.3-3.7,5.3l-0.2-2c0.7,0.1,1.7-0.6,1.8-3.7l0.1-2.5h6.1V20h-2.1V14z"/>
	<path class="st1" d="M166.3,12.5c0.7-0.4,1.8-0.8,2.9-0.8c2.4,0,3.2,1.2,3.2,3.4V20h-1.8v-0.9c-0.4,0.6-1.3,1-2.4,1
		c-1.5,0-2.5-0.9-2.5-2.5c0-1.8,1.3-2.6,3-2.6c0.7,0,1.4,0.2,1.8,0.5c0.1-1.4-0.3-2.1-1.5-2.1c-0.9,0-1.5,0.3-2.1,0.6L166.3,12.5z
		 M170.5,17.6v-0.8c-0.4-0.3-0.8-0.4-1.4-0.4c-0.7,0-1.3,0.3-1.3,1c0,0.6,0.5,1,1.2,1C169.8,18.4,170.2,18,170.5,17.6z"/>
	<path class="st1" d="M173.7,11.9h7.4V14h-2.6v6h-2.1v-6h-2.7V11.9z"/>
	<path class="st1" d="M182.6,12.5c0.7-0.4,1.8-0.8,2.9-0.8c2.4,0,3.2,1.2,3.2,3.4V20h-1.8v-0.9c-0.4,0.6-1.3,1-2.4,1
		c-1.5,0-2.5-0.9-2.5-2.5c0-1.8,1.3-2.6,3-2.6c0.7,0,1.4,0.2,1.8,0.5c0.1-1.4-0.3-2.1-1.5-2.1c-0.9,0-1.5,0.3-2.1,0.6L182.6,12.5z
		 M186.8,17.6v-0.8c-0.4-0.3-0.8-0.4-1.4-0.4c-0.7,0-1.3,0.3-1.3,1c0,0.6,0.5,1,1.2,1C186.1,18.4,186.5,18,186.8,17.6z"/>
</g>
<g id="dolla-bill-yall" transform="translate(-8537.466 7465.874)">
	<g id="Group_165" transform="translate(2399.075 1213.126)">
		<g id="Group_164" transform="translate(0 0)">
			<path id="Path_122" class="st2" d="M6180.6-8679h-41.1c-0.6,0-1.1,0.5-1.1,1.1c0,0,0,0,0,0v27.4c0,0.6,0.5,1.1,1.1,1.1
				c0,0,0,0,0,0h41.1c0.6,0,1.1-0.5,1.1-1.1c0,0,0,0,0,0v-27.4C6181.8-8678.5,6181.2-8679,6180.6-8679z M6172.8-8651.6h-25.4
				c-0.5-3.3-3.3-5.9-6.7-6.1v-12.9c3.4-0.3,6.1-2.8,6.7-6.1h25.4c0.5,3.3,3.3,5.9,6.7,6.1v12.9
				C6176.1-8657.4,6173.3-8654.9,6172.8-8651.6z M6179.5-8672.9c-2.1-0.2-3.9-1.8-4.4-3.9h4.4V-8672.9z M6145-8676.7
				c-0.5,2.1-2.3,3.6-4.4,3.9v-3.9H6145z M6140.7-8655.4c2.1,0.2,3.9,1.8,4.4,3.9h-4.4V-8655.4z M6175.1-8651.6
				c0.5-2.1,2.3-3.6,4.4-3.9v3.9H6175.1z"/>
			<path id="Path_123" class="st2" d="M6160.1-8670c-2.7,0-4.9,2.7-4.9,5.9s2.2,5.9,4.9,5.9c2.7,0,4.9-2.7,4.9-5.9
				S6162.8-8670,6160.1-8670z M6160.1-8660.5c-1.4,0-2.7-1.7-2.7-3.6s1.2-3.6,2.7-3.6c1.5,0,2.7,1.7,2.7,3.6
				S6161.5-8660.5,6160.1-8660.5z"/>
		</g>
	</g>
</g>
</svg>
