<svg xmlns="http://www.w3.org/2000/svg" viewBox="0 0 32.208 40">
  <defs>
    <style>
      .cls-1 {
        fill: #fff;
      }
    </style>
  </defs>
  <g id="shopping-bag" transform="translate(-1753 -910)">
    <path id="Path_227" data-name="Path 227" class="cls-1" d="M106,14.586l-.117-.313-2.859-4.581a1.024,1.024,0,0,0-1.038-.764H98.133V8.165A8.017,8.017,0,0,0,95.881,2.31,7.628,7.628,0,0,0,90.164,0a7.711,7.711,0,0,0-5.756,2.31,8.028,8.028,0,0,0-2.271,5.854v.764H78.28a.95.95,0,0,0-.92.568l-.078.079-2.918,4.7a1.418,1.418,0,0,0-.157.47,2.217,2.217,0,0,0-.176.881V37.65a2.234,2.234,0,0,0,.685,1.665A2.34,2.34,0,0,0,76.4,40h27.47a2.324,2.324,0,0,0,2.369-2.35V15.624A2.309,2.309,0,0,0,106,14.586ZM98.133,11.1h3.211l1.332,2.154H98.133V11.1ZM84.31,8.165a5.93,5.93,0,0,1,1.625-4.327,5.653,5.653,0,0,1,4.229-1.684,5.589,5.589,0,0,1,4.19,1.684,5.959,5.959,0,0,1,1.625,4.327v.764H84.31Zm0,2.937H95.98v2.154H84.31Zm-5.423,0h3.25v2.154H77.575Zm25.179,26.549c0,.137-.059.2-.2.2H76.4c-.137,0-.2-.058-.2-.2V15.624c0-.137.059-.2.2-.2h27.47c.137,0,.2.059.2.2V37.651Z" transform="translate(1678.969 910)"/>
  </g>
</svg>
