<svg xmlns="http://www.w3.org/2000/svg" viewBox="1967 3369 211 42.925">
  <defs>
    <style>
      .cls-1 {
        fill: red;
      }
    </style>
  </defs>
  <g id="Yandex_RU_Reg" transform="translate(1967 3369)">
    <g id="Layer_1" data-name="Layer 1">
      <path id="Path_115" data-name="Path 115" class="cls-1" d="M11.127,23.256,4.7,37.7H0l7.064-15.45C3.744,20.567,1.53,17.507,1.53,11.863,1.53,3.953,6.537,0,12.5,0h6.062V37.7H14.5V23.256ZM14.5,3.415H12.338c-3.269,0-6.433,2.162-6.433,8.438,0,6.062,2.9,8.015,6.433,8.015H14.5Z"/>
      <path id="Path_116" data-name="Path 116" d="M59.93,20.97V47.547H55.884V35.632H49.764V47.547H45.65V20.97h4.114V32.254h6.119V20.97Zm21.146,31.8H77.385V47.547H66.008v5.221H62.317V44.174h1.634c2.428-5.644,2.689-13.868,2.689-20.938V20.97H78.978v23.2h2.089ZM74.921,24.291h-4.59v.475c0,5.592-.266,13.763-2.48,19.408h7.064ZM92.428,47.918c-5.482,0-8.876-4.375-8.876-12.531,0-8.542,2.37-14.766,8.015-14.766,4.428,0,7.31,3.321,7.31,12.338v2.266H87.839c0,6.01,1.686,9.174,4.955,9.174a9.216,9.216,0,0,0,5.221-1.791l.95,3.164A10.443,10.443,0,0,1,92.428,47.918ZM87.891,31.836h6.788c0-4.537-.736-7.832-3.133-7.832C89.05,23.978,88.157,27.074,87.891,31.836Zm19.356,2.48V47.547h-4.114V20.97h4.114V33.256l6.38-12.286H117.8l-6.6,12.5,7.54,14.1h-4.48Zm12.009-.052c0-8.354,3.216-13.659,9.44-13.659a8.354,8.354,0,0,1,4.9,1.373l-.569,3.9a7.038,7.038,0,0,0-4.375-1.843c-2.955,0-5.065,3.321-5.065,10.02s1.566,10.443,4.9,10.443a6.715,6.715,0,0,0,4.48-1.634l.95,3.06a8.046,8.046,0,0,1-5.535,2.005c-5.691-.005-9.116-4.595-9.116-13.664Z" transform="translate(-21.815 -9.844)"/>
      <path id="Path_117" data-name="Path 117" d="M241.611,17.826V37.7H239V0h2.611V17.612L252.638,0h2.548L244.31,17.4l11.811,20.3h-2.955Z" transform="translate(-114.21)"/>
      <path id="Path_118" data-name="Path 118" d="M286.693,43.827c-1.264,2.532-3.164,4.114-5.8,4.114-3.587,0-6.062-2.846-6.062-7.7,0-5.7,3.133-8.647,8.876-8.647h2.9V28.267c0-4.062-1.53-5.8-4.428-5.8a6.689,6.689,0,0,0-5.613,2.9L275.88,23a7.876,7.876,0,0,1,6.266-2.689c4.386-.005,6.871,2.423,6.871,7.67V42.506a19.443,19.443,0,0,0,.58,4.9H287.33A15.858,15.858,0,0,1,286.693,43.827Zm-.1-3.133v-7.31h-2.846c-4.375,0-6.485,2.005-6.485,6.647,0,3.744,1.634,5.905,4.177,5.905s4.2-2.376,5.148-5.221Z" transform="translate(-131.332 -9.705)"/>
      <path id="Path_119" data-name="Path 119" d="M323.191,42.929l.794,2.057a7.508,7.508,0,0,1-6.119,2.955c-5.326,0-8.385-5.117-8.385-13.763,0-8.756,3.008-13.868,8.438-13.868a7.127,7.127,0,0,1,5.8,2.48l-.684,2.611a6.322,6.322,0,0,0-5.117-3.007c-4.062,0-5.958,4.271-5.958,11.758,0,7.279,1.848,11.6,5.958,11.6A6.658,6.658,0,0,0,323.191,42.929Z" transform="translate(-147.89 -9.705)"/>
      <path id="Path_120" data-name="Path 120" d="M356.721,42.929l.794,2.057a7.508,7.508,0,0,1-6.119,2.955c-5.326,0-8.385-5.117-8.385-13.763,0-8.756,3.008-13.868,8.438-13.868a7.126,7.126,0,0,1,5.8,2.48l-.684,2.611a6.322,6.322,0,0,0-5.117-3.007c-4.062,0-5.958,4.271-5.958,11.758,0,7.279,1.848,11.6,5.958,11.6A6.647,6.647,0,0,0,356.721,42.929Z" transform="translate(-163.912 -9.705)"/>
      <path id="Path_121" data-name="Path 121" d="M387.7,43.827c-1.264,2.532-3.164,4.114-5.8,4.114-3.587,0-6.062-2.846-6.062-7.7,0-5.7,3.133-8.647,8.876-8.647h2.9V28.267c0-4.062-1.53-5.8-4.428-5.8a6.689,6.689,0,0,0-5.608,2.9L376.895,23a7.876,7.876,0,0,1,6.266-2.689c4.386-.005,6.861,2.423,6.861,7.67V42.506a19.443,19.443,0,0,0,.58,4.9h-2.266a15.856,15.856,0,0,1-.632-3.582Zm-.1-3.133v-7.31h-2.851c-4.376,0-6.485,2.005-6.485,6.647,0,3.744,1.634,5.905,4.177,5.905s4.208-2.376,5.159-5.221Z" transform="translate(-179.601 -9.705)"/>
    </g>
  </g>
</svg>
